HIERARCHY
ROOT root     
{
	OFFSET 0.0000 0.0000 0.0000
	CHANNELS 6 Xposition Yposition Zposition Zrotation Yrotation Xrotation
	JOINT pelvis   
	{
		OFFSET 0.0000 0.0000 0.0000
		CHANNELS 3 Zrotation Yrotation Xrotation
		JOINT thorax   
		{
			OFFSET 0.0000 23.0750 -5.0000
			CHANNELS 3 Zrotation Yrotation Xrotation
			JOINT rclavicle
			{
				OFFSET 0.0000 28.0009 0.0000
				CHANNELS 3 Zrotation Yrotation Xrotation
				JOINT rhumerus 
				{
					OFFSET -18.5725 5.5939 0.0000
					CHANNELS 3 Zrotation Yrotation Xrotation
					JOINT rradius  
					{
						OFFSET -24.8459 0.0000 0.0000
						CHANNELS 3 Zrotation Yrotation Xrotation
						JOINT rhand    
						{
							OFFSET -24.5477 0.0000 0.0000
							CHANNELS 3 Zrotation Yrotation Xrotation
							End Site
							{
								OFFSET -8.1826 0.0000 0.0000
							}
						}
					}
				}
			}
			JOINT lclavicle
			{
				OFFSET 0.0000 28.0009 0.0000
				CHANNELS 3 Zrotation Yrotation Xrotation
				JOINT lhumerus 
				{
					OFFSET 18.5725 5.5939 0.0000
					CHANNELS 3 Zrotation Yrotation Xrotation
					JOINT lradius  
					{
						OFFSET 24.8459 0.0000 0.0000
						CHANNELS 3 Zrotation Yrotation Xrotation
						JOINT lhand    
						{
							OFFSET 24.5477 0.0000 0.0000
							CHANNELS 3 Zrotation Yrotation Xrotation
							End Site
							{
								OFFSET 8.1826 0.0000 0.0000
							}
						}
					}
				}
			}
			JOINT head     
			{
				OFFSET 0.0000 35.2030 0.0000
				CHANNELS 3 Zrotation Yrotation Xrotation
				End Site
				{
					OFFSET 0.0000 11.7343 0.0000
				}
			}
		}
		JOINT rfemur   
		{
			OFFSET -8.2817 0.0000 0.0000
			CHANNELS 3 Zrotation Yrotation Xrotation
			JOINT rtibia   
			{
				OFFSET 0.0000 -43.3627 0.0000
				CHANNELS 3 Zrotation Yrotation Xrotation
				JOINT rfoot    
				{
					OFFSET 0.0000 -38.2947 0.0000
					CHANNELS 3 Zrotation Yrotation Xrotation
					JOINT rtoes    
					{
						OFFSET 0.0000 0.0000 16.6054
						CHANNELS 3 Zrotation Yrotation Xrotation
						End Site
						{
							OFFSET 0.0000 0.0000 5.5351
						}
					}
				}
			}
		}
		JOINT lfemur   
		{
			OFFSET 8.2817 0.0000 0.0000
			CHANNELS 3 Zrotation Yrotation Xrotation
			JOINT ltibia   
			{
				OFFSET 0.0000 -43.3627 0.0000
				CHANNELS 3 Zrotation Yrotation Xrotation
				JOINT lfoot    
				{
					OFFSET 0.0000 -38.2947 0.0000
					CHANNELS 3 Zrotation Yrotation Xrotation
					JOINT ltoes    
					{
						OFFSET 0.0000 0.0000 16.6054
						CHANNELS 3 Zrotation Yrotation Xrotation
						End Site
						{
							OFFSET 0.0000 0.0000 5.5351
						}
					}
				}
			}
		}
	}
}
MOTION
Frames: 7
Frame Time: .0333333
107.76 86.246 13.537 -147.36 -82.4491 172.877 0 -0 0 1.61691 -8.5888 -4.62714 1.52858 -6.98307 1.90891e-06 -16.9107 67.7654 -23.1419 -4.58297e-07 53.5785 -9.07697e-07 10.1146 -1.07259 -0.0949016 2.5078 12.4608 -1.06956e-06 31.4949 -57.812 -64.8059 0 -37.5437 0 13.7049 -6.05486 -0.728284 9.15596 4.47332 -26.5796 1.33762 -5.49493 -39.1238 -0 -0 49.5582 2.08286e-07 -5.90937 2.25301 -0.233104 -2.46166e-06 -49.6971 1.26257 7.94524 -9.30785 -0 -0 22.6554 1.38404e-06 10.1231 9.24546 1.64315 3.76076e-05 -64.5559 
106.16 86.779 13.372 -145.799 -82.4057 171.475 0 -0 0 2.52252 -8.59067 -4.79685 1.78293 -7.15211 -2.07846e-06 -16.0037 68.493 -24.3602 -0 53.2357 -0 8.76774 -0.631005 -0.0484 2.25667 12.4785 1.98489e-06 30.5193 -56.7786 -59.1215 0 -37.5001 0 12.2975 -5.55473 -0.598826 8.69689 4.32353 -27.1317 2.33738 -5.48752 -39.4498 -0 -0 45.8133 -3.66586e-06 -5.70971 2.4027 -0.240193 2.6387e-06 -50.681 1.69304 8.16648 -8.27465 -0 -0 21.5348 -3.56535e-06 9.61446 12.2822 2.06376 -2.48719e-05 -64.4205 
104.57 87.255 13.203 -144.268 -82.3637 170.123 0 -0 0 3.42962 -8.56633 -4.9799 1.99832 -7.30941 -3.8418e-06 -14.9242 69.2213 -25.7107 -0 52.8977 -0 7.54745 -0.173105 -0.0114004 2.05434 12.5093 -1.5652e-05 29.6602 -55.744 -53.451 0 -37.6671 0 10.7939 -4.92508 -0.465589 8.21164 4.17501 -27.711 3.28388 -5.39669 -39.7314 -0 -0 41.9967 6.88865e-06 -5.51873 2.58413 -0.249604 -2.08419e-06 -52.0086 2.10763 8.32996 -7.36456 -0 -0 20.6566 6.68168e-05 9.21896 14.9913 2.40408 2.88771e-05 -63.4687 
102.99 87.666 13.035 -142.898 -82.3369 168.938 0 -0 0 4.3089 -8.52051 -5.16508 2.17668 -7.45048 2.55065e-06 -13.6428 69.9606 -27.1799 -0 52.5797 -0 6.44377 0.322396 0.0181993 1.91424 12.5494 8.92777e-06 28.8981 -54.7147 -47.8486 2.49977e-07 -38.0574 -7.24815e-07 9.1655 -4.20744 -0.337396 7.71506 4.03138 -28.3117 4.1542 -5.23716 -39.964 -0 -0 38.1469 -1.32455e-06 -5.32136 2.81345 -0.262001 -3.20513e-06 -53.5349 2.48595 8.39209 -6.55838 -0 -0 20.0327 -3.1745e-05 8.97022 17.3142 2.68968 -2.89183e-05 -61.8624 
101.4 88.005 12.87 -141.764 -82.3227 167.977 0 -0 0 5.13557 -8.46128 -5.33852 2.32068 -7.57064 8.9926e-07 -12.1415 70.7087 -28.7505 -4.34972e-07 52.2933 -8.86063e-07 5.43478 0.879603 0.0416997 1.83634 12.5862 -1.03451e-05 28.2292 -53.6876 -42.3638 0 -38.675 0 7.4079 -3.45007 -0.223399 7.21921 3.8947 -28.9221 4.93428 -5.02998 -40.1456 -0 -0 34.3176 3.15769e-06 -5.10325 3.11841 -0.278297 6.19367e-07 -55.0588 2.81207 8.3309 -5.83723 -0 -0 19.6813 5.61568e-06 8.87571 19.2162 2.94234 -1.68335e-05 -59.8141 
99.81 88.264 12.708 -140.944 -82.3417 167.301 0 -0 0 5.887 -8.3973 -5.48045 2.44023 -7.66713 -5.60011e-06 -10.4337 71.4718 -30.4066 -0 52.0568 -0 4.48145 1.52604 0.0597007 1.83044 12.623 6.9215e-06 27.63 -52.6864 -37.0651 0 -39.5075 0 5.54288 -2.71083 -0.131301 6.73188 3.76556 -29.5323 5.61834 -4.80504 -40.2656 -0 -0 30.5761 -3.68794e-06 -4.84741 3.52926 -0.2991 2.88335e-06 -56.3373 3.07407 8.13748 -5.17276 -0 -0 19.6107 -3.60457e-05 8.92962 20.698 3.17873 1.14775e-05 -57.638 
98.209 88.439 12.564 -140.76 -82.4052 167.205 0 -0 0 6.50384 -8.34676 -5.58098 2.53628 -7.72926 6.57928e-06 -8.43659 72.2573 -32.0994 -0 51.8925 -0 3.59015 2.2455 0.0703986 1.84929 12.6035 -9.44786e-06 27.1596 -51.6192 -31.9367 2.75754e-07 -40.5909 -7.45647e-07 3.60355 -2.00778 -0.0632005 6.25891 3.64084 -30.1219 6.17584 -4.63484 -40.3477 -0 -0 27.0374 4.6047e-06 -4.5046 4.0715 -0.320494 1.34255e-06 -57.4033 3.20846 7.75589 -4.53839 -0 -0 19.814 -2.96238e-05 9.16468 21.7774 3.42543 -3.83022e-05 -55.3376 
